<svg xmlns="http://www.w3.org/2000/svg" viewBox="0 0 134.77 134.77"><g id="Layer_2" data-name="Layer 2"><rect width="134.77" height="134.77" rx="16.29" style="fill:#1565ff"/><path d="M52.45,64.4A10.77,10.77,0,1,0,41.68,53.64,10.76,10.76,0,0,0,52.45,64.4Z" style="fill:#fff"/><path d="M84.18,53.77a6.48,6.48,0,0,0-9.43-.91L56.35,69.07a5.91,5.91,0,0,1-7.8,0L30.15,52.86a6.49,6.49,0,0,0-9.44.91,6.65,6.65,0,0,0,1,9l14.74,13A25.1,25.1,0,0,1,45,94.57v20.32a7.63,7.63,0,0,0,7.33,7.71,7.46,7.46,0,0,0,7.6-7.46V94.57a25.1,25.1,0,0,1,8.51-18.84l14.74-13A6.63,6.63,0,0,0,84.18,53.77Z" style="fill:#fff"/><path d="M82.32,37.7A10.77,10.77,0,1,0,71.56,26.94,10.77,10.77,0,0,0,82.32,37.7Z" style="fill:#fff"/><path d="M114.06,27.07a6.49,6.49,0,0,0-9.44-.91L86.22,42.37a5.91,5.91,0,0,1-7.8,0L60,26.16a6.48,6.48,0,0,0-9.43.91,6.63,6.63,0,0,0,1,9L66.35,49a25.1,25.1,0,0,1,8.51,18.84V88.19a7.63,7.63,0,0,0,7.32,7.71,7.47,7.47,0,0,0,7.61-7.46V67.87A25.1,25.1,0,0,1,98.3,49L113,36A6.64,6.64,0,0,0,114.06,27.07Z" style="fill:#fff"/></g></svg>