<svg id="Layer_1" data-name="Layer 1" width="134.77" height="134.77" xmlns="http://www.w3.org/2000/svg" viewBox="0 0 134.77 134.77"><rect width="134.77" height="134.77" rx="16.29" style="fill:#f15a24"/><path d="M38.56,81.88l-.23.15c-1.68,1.16-2,2.65-1.84,4.72.81,8,1.4,16,2,24.07a5.8,5.8,0,0,1-4.24,6.27,5.52,5.52,0,0,1-6.46-2.71,11.33,11.33,0,0,1-.9-3.53q-1.85-14.11-3.6-28.26A20,20,0,0,1,25.4,70.93q2.19-4.35,4.47-8.66a1.17,1.17,0,0,0-.19-1.52c-3.86-4.49-7.69-9-11.53-13.52a7.11,7.11,0,0,1-1.67-6.07Q17.79,33.59,19.23,26c.59-3.1,3.24-4.73,6.41-4a5,5,0,0,1,3.84,6.16c-.78,3.71-1.56,7.42-2.39,11.11a1.89,1.89,0,0,0,.65,2.06q3.59,3.32,7,6.76a2.13,2.13,0,0,0,2.09.68c3.21-.51,6.44-.88,9.65-1.37a1.93,1.93,0,0,0,1.22-.82Q50.87,41.32,53.87,36A2.13,2.13,0,0,0,54,34.41c-1.27-3.34-2.63-6.64-3.93-10a5,5,0,0,1,1.37-5.81,4.68,4.68,0,0,1,5.73-.44,7,7,0,0,1,2.19,2.71c1.82,4.21,3.47,8.49,5.22,12.72A6.87,6.87,0,0,1,64,40.23c-3.39,5.46-6.73,11-10.07,16.44a6.16,6.16,0,0,0-.74,1.78c-1.13,4.82-2.25,9.63-3.29,14.46a3.12,3.12,0,0,0,.28,1.92Q53.51,81.28,57,87.65a9.38,9.38,0,0,1,.94,6.89c-1.38,6-2.65,12.12-4,18.19a5.52,5.52,0,0,1-6.38,4.5,5.38,5.38,0,0,1-4.48-6.16c.72-5,1.51-10,2.54-14.94.53-2.53.3-4.51-1.44-6.53C42.15,87.2,40.44,84.49,38.56,81.88Z" style="fill:#fff"/><path d="M89.58,81.82c-1.74,3.12-3.22,6.2-5.1,9-3.36,5-4.81,10.75-6.24,16.49-.48,1.93-1,3.85-1.54,5.76a5.82,5.82,0,0,1-7.41,4,5.49,5.49,0,0,1-3.86-7c1.44-5.48,2.9-11,4.42-16.41a16.05,16.05,0,0,1,1.34-3.07c2.17-4.24,4.26-8.53,6.61-12.68a25.16,25.16,0,0,0,2.77-9.92c.17-1.5.2-3,.26-4.54,0-.45-.06-.91-.11-1.67-.45.51-.71.79-1,1.08-1.76,2.11-3.54,4.2-5.27,6.33a6,6,0,0,0-1,1.77c-1.14,3.27-2.19,6.58-3.36,9.84A4.78,4.78,0,0,1,65.61,84a4.72,4.72,0,0,1-4.5-3.15,6.49,6.49,0,0,1-.1-3.36c1-3.66,2.18-7.26,3.21-10.9a15.35,15.35,0,0,1,3.44-5.7c2.54-3,5.06-6,7.59-9A10.38,10.38,0,0,1,81,48.42c4.47-1,8.93-2.07,13.38-3.16a2.54,2.54,0,0,0,1.35-.91c2.42-3.46,4.8-7,7.17-10.46a6.53,6.53,0,0,0,.69-1.34c1.46-3.81,2.9-7.62,4.35-11.43A5.38,5.38,0,1,1,118,25c-1.58,4-3.1,8.09-4.79,12.08a50.6,50.6,0,0,1-2.92,5.42c-2.27,4-4.58,7.87-6.83,11.82a4.2,4.2,0,0,0-.52,1.83,59,59,0,0,1-2.55,16,2.16,2.16,0,0,0,.15,1.41q2.94,6.27,6,12.51c1.09,2.25,1.18,4.67,1.42,7.07.57,5.94,1.09,11.87,1.65,17.81a5.54,5.54,0,0,1-4.6,6.3,5.4,5.4,0,0,1-6.38-4.85c-.52-4-.85-8-1.26-12.07-.24-2.44-.43-4.89-.75-7.33a5.47,5.47,0,0,0-.88-2.25C93.73,87.77,91.69,84.88,89.58,81.82Z" style="fill:#fff"/><path d="M40.83,26.33a8.86,8.86,0,1,1-9,8.79A8.86,8.86,0,0,1,40.83,26.33Z" style="fill:#fff"/><path d="M85.14,26.32a8.87,8.87,0,1,1-8.87,8.89A9,9,0,0,1,85.14,26.32Z" style="fill:#fff"/></svg>