<svg id="Layer_1" data-name="Layer 1" width="134.77" height="134.77" xmlns="http://www.w3.org/2000/svg" viewBox="0 0 134.77 134.77"><rect width="134.77" height="134.77" rx="16.29" style="fill:#f15a24"/><path d="M97.53,56.81a10.71,10.71,0,1,0-1.75,14.48c.19,8.1.37,16.28.56,24.62a9.77,9.77,0,0,1-7.55-1.85,32.44,32.44,0,0,1-7.39-8,6.79,6.79,0,0,0-4.94-3.24C72,82.26,65,86.49,67.33,93.41a26.13,26.13,0,0,0,5.37,8.82c1.19,1.37,2.55,2.62,3.6,4.1a20.33,20.33,0,0,1,2.58,4.73c.74,2-.09,3.19-2.18,3.73-25.89,6.71-52.94-9.58-59-35.56C12.05,55.31,24.17,31.44,47,22.6c17.32-6.71,33.58-4,48.36,7.33A1.52,1.52,0,0,1,96,31.76a12.66,12.66,0,0,0,4.17,12.78,1.46,1.46,0,0,1,.45,1.86C99.54,49.85,98.56,53.33,97.53,56.81ZM41.1,91.91a8,8,0,1,0-8-8A8,8,0,0,0,41.1,91.91ZM77.52,40.54a8,8,0,1,0-8,8A8,8,0,0,0,77.52,40.54ZM42,61.93a8,8,0,1,0-7.91-8A8,8,0,0,0,42,61.93Z" style="fill:#fff"/><path d="M104.29,47.17c4.71,1,5.4,1,9.63-.17.25.59.55,1.19.76,1.82a74,74,0,0,1,3.16,16.42,142.76,142.76,0,0,1-.28,29.59,66.91,66.91,0,0,1-3.33,15.58,22.55,22.55,0,0,1-2,4.21c-2.15,3.46-4.85,3.48-6.81-.1a33.71,33.71,0,0,1-2.92-7.46c-2.49-9.45-3-19.14-2.88-28.87.12-9.17.89-18.26,3.38-27.13C103.37,49.74,103.86,48.45,104.29,47.17Z" style="fill:#fff"/><path d="M107,17.56a13.15,13.15,0,0,1,1.57,1c4.36,3.64,8,7.85,9.4,13.51A9.34,9.34,0,0,1,100,37.38a7.61,7.61,0,0,1,1.39-7.68,44,44,0,0,1,3.45-3.52c2.43-2.27,3.42-4.85,1.93-8a.85.85,0,0,1,0-.36S106.82,17.72,107,17.56Z" style="fill:#fff"/></svg>