<svg id="Layer_1" data-name="Layer 1" width="134.77" height="134.77" xmlns="http://www.w3.org/2000/svg" viewBox="0 0 134.77 134.77"><rect width="134.77" height="134.77" rx="16.29" style="fill:#f15a24"/><path d="M79.88,49.54,35,36.14a7.13,7.13,0,0,0-8.87,4.79L18,68.23A30.54,30.54,0,0,0,76.52,85.71l8.15-27.3A7.12,7.12,0,0,0,79.88,49.54Zm-15,11.63a6.67,6.67,0,0,1,4.48,8.3c-1.06,3.53-3.68,1.87-7.2.81s-6.64-1.1-5.58-4.63A6.67,6.67,0,0,1,64.92,61.17ZM41.16,54.08a6.66,6.66,0,0,1,4.48,8.3c-1,3.53-3.67,1.86-7.2.81s-6.63-1.1-5.58-4.63A6.67,6.67,0,0,1,41.16,54.08Zm.93,40.2a19.79,19.79,0,0,1-13.72-15,3.47,3.47,0,0,1,4.42-4L60.28,83.5a3.48,3.48,0,0,1,1.53,5.74A19.8,19.8,0,0,1,42.09,94.28Z" style="fill:#fff"/><path d="M109.49,27.29l-35.75,3.9a5.49,5.49,0,0,0-4.86,6L71.26,59a23.46,23.46,0,1,0,46.65-5.09l-2.37-21.77A5.48,5.48,0,0,0,109.49,27.29ZM78.9,47.71A5.12,5.12,0,1,1,89.08,46.6c.31,2.81-2,2.42-4.85,2.72S79.2,50.53,78.9,47.71Zm28.15,21.34L85.13,71.44a2.66,2.66,0,0,1-2.79-3.6A15.19,15.19,0,0,1,109,64.93,2.67,2.67,0,0,1,107.05,69.05Zm-3.89-21.79c-2.81.3-5,1.2-5.33-1.61A5.13,5.13,0,1,1,108,44.53C108.33,47.35,106,47,103.16,47.26Z" style="fill:#fff"/></svg>