<svg xmlns="http://www.w3.org/2000/svg" width="134.77" height="134.77" viewBox="0 0 134.77 134.77"><g id="Layer_2" data-name="Layer 2"><rect width="134.77" height="134.77" rx="16.29" style="fill:#f15a24"/><path d="M119.35,72.1h0a5.88,5.88,0,0,0,0-8.29L94.79,39.26a5.86,5.86,0,0,0-8.29,0l-15,15a5.86,5.86,0,0,1-8.29,0l-15-15a5.86,5.86,0,0,0-8.29,0L15.43,63.81a5.86,5.86,0,0,0,0,8.29h0a5.85,5.85,0,0,0,8.28,0L40,55.83a5.86,5.86,0,0,1,8.29,0L55,62.51a5.88,5.88,0,0,1,0,8.29L38.53,87.23a5.86,5.86,0,0,0,0,8.29h0a5.87,5.87,0,0,0,8.28,0L63.24,79.09a5.86,5.86,0,0,1,8.29,0L88,95.52a5.87,5.87,0,0,0,8.28,0h0a5.86,5.86,0,0,0,0-8.29L79.82,70.8a5.86,5.86,0,0,1,0-8.29l6.68-6.68a5.86,5.86,0,0,1,8.29,0L111.06,72.1A5.86,5.86,0,0,0,119.35,72.1Z" style="fill:#fff"/></g></svg>