<svg id="Layer_1" data-name="Layer 1" width="134.77" height="134.77" xmlns="http://www.w3.org/2000/svg" viewBox="0 0 134.77 134.77"><rect width="134.77" height="134.77" rx="16.29" style="fill:#1565ff"/><path d="M61.15,84.31,34.06,71.19v12.5h0c0,.19,0,.37,0,.55C34,94.07,49,102,67.39,102s33.35-8,33.35-17.8c0-.18,0-.36,0-.55h0V71.18L73.63,84.31A14.31,14.31,0,0,1,61.15,84.31Z" style="fill:#fff"/><path d="M116.67,77.1V63.46l-3.9,1.89V77.1a4.54,4.54,0,1,0,3.9,0Z" style="fill:#fff"/><path d="M120.11,49.47,73.63,27a14.31,14.31,0,0,0-12.48,0L14.66,49.47a4.25,4.25,0,0,0,0,7.64L61.15,79.62a14.31,14.31,0,0,0,12.48,0l46.48-22.51A4.25,4.25,0,0,0,120.11,49.47Z" style="fill:#fff"/></svg>