<svg id="Layer_1" data-name="Layer 1" width="134.77" height="134.77" xmlns="http://www.w3.org/2000/svg" viewBox="0 0 134.77 134.77"><rect width="134.77" height="134.77" rx="16.29" style="fill:#f15a24"/><path d="M117.66,49.35c-13.11-7.36-27-9-41.23-4.41-18.48,6-30.08,18.76-35,37.54-.62,2.41-.86,4.92-1.28,7.38C52.58,78.79,65.6,69.13,81.85,64.8a1,1,0,0,1-.49.42c-9.29,4.16-17.3,10.15-24.69,17.06s-13.22,15-18.93,23.26c-1.54,2.22-2.88,4.58-4.35,6.94l6.42,3.08a85.47,85.47,0,0,1,7.57-16.48A50.64,50.64,0,0,0,60,102.37c14.52,1.74,27.61-1.78,39-10.91a49.65,49.65,0,0,0,18.4-30.68,100.21,100.21,0,0,0,1-10.28A1.61,1.61,0,0,0,117.66,49.35Z" style="fill:#fff"/><path d="M37.15,87.62c.07-.38.1-.53.12-.68A55.61,55.61,0,0,1,46.34,63.1a1.68,1.68,0,0,0,.08-1.34A43.58,43.58,0,0,0,40.55,51c-1.63-2.2-3.41-4.28-5.2-6.51a53.21,53.21,0,0,1,15.43,13A53.18,53.18,0,0,1,68.91,44.06c-.21-.28-.31-.45-.43-.59C56.17,29.25,40.62,23.16,21.92,25a1.8,1.8,0,0,0-1.67,1.28,49.53,49.53,0,0,0-3.95,18q-.51,24.14,17.36,40.5C34.73,85.74,35.92,86.62,37.15,87.62Z" style="fill:#fff"/></svg>