<svg id="Layer_1" data-name="Layer 1" width="134.77" height="134.77" xmlns="http://www.w3.org/2000/svg" viewBox="0 0 134.77 134.77"><rect width="134.77" height="134.77" rx="16.29" style="fill:#f15a24"/><path d="M62.86,76.69c.22-.58.34-.94.36-1a1.76,1.76,0,1,0-3.36-1.08s-.16.46-.46,1.18h0a18.09,18.09,0,0,0-5.87.19c0-.63,0-1.24.07-1.83A67.78,67.78,0,0,0,64.27,72.5a1.77,1.77,0,0,0-.8-3.44,66.81,66.81,0,0,1-9.58,1.5,36,36,0,0,1,.75-4.4,1.77,1.77,0,0,0-3.43-.9,44.25,44.25,0,0,0-.93,5.49,43.61,43.61,0,0,1-5.63-.2,1.77,1.77,0,1,0-.47,3.5,39.18,39.18,0,0,0,4.92.26H50c0,.87-.06,1.79-.06,2.75a13,13,0,0,0-4.16,2.73c-3.15,3.23-5.05,8.93-2.87,11.73.9,1.15,3.12,2.66,8-.15.33-.19.63-.4.94-.6.34,1.21.72,2.42,1.18,3.65a1.78,1.78,0,0,0,1.66,1.14,1.66,1.66,0,0,0,.62-.11,1.76,1.76,0,0,0,1-2.28,39.79,39.79,0,0,1-1.45-4.72,31.08,31.08,0,0,0,6.53-8.53,7.92,7.92,0,0,1,4.25,3.61,3.27,3.27,0,0,1,.21,2.93c-1,2.27-4.61,3.82-5.93,4.22a1.77,1.77,0,0,0,.51,3.46,1.86,1.86,0,0,0,.52-.07c.64-.2,6.34-2,8.15-6.2a6.93,6.93,0,0,0-.32-6A11.63,11.63,0,0,0,62.86,76.69ZM49.1,88.3c-2.21,1.28-3.26,1.21-3.39,1-.63-.81.18-4.6,2.6-7.09a8.26,8.26,0,0,1,1.78-1.33,50.56,50.56,0,0,0,.83,6.16A19.24,19.24,0,0,1,49.1,88.3Zm4.94-4a46.64,46.64,0,0,1-.46-4.67,15.33,15.33,0,0,1,3.51-.43l.64,0A28.85,28.85,0,0,1,54,84.26Z" style="fill:#fff"/><path d="M84.48,23.68c-.86-1.89-1.89-2.14-2.75-2.14s-1.92.25-2.74,2.14L67.59,49.22a3,3,0,0,0-.34,1.29,2.06,2.06,0,0,0,2.18,2.05A2.2,2.2,0,0,0,71.49,51l2.61-6.22h15l2.62,6.17a2.28,2.28,0,0,0,2.14,1.63,2.1,2.1,0,0,0,2.19-2.14,3.24,3.24,0,0,0-.3-1.29ZM75.69,41l6-14.09L87.56,41Z" style="fill:#fff"/><path d="M107.67,11.57h-52a4.52,4.52,0,0,0-4.52,4.51V50.85a1.18,1.18,0,0,0-.27-.06H27.1a4.52,4.52,0,0,0-4.51,4.52V100a4.51,4.51,0,0,0,4.51,4.51H49a1,1,0,0,1,.77.39l12.5,16.47a4.46,4.46,0,0,0,3.56,1.8,4.51,4.51,0,0,0,1.48-.25,4.46,4.46,0,0,0,3.07-4.28V105.53a1,1,0,0,1,1-1h9.18A4.51,4.51,0,0,0,85.07,100V76.93L88,80.77a4.45,4.45,0,0,0,3.57,1.79A4.71,4.71,0,0,0,93,82.32,4.45,4.45,0,0,0,96.09,78V64.88a1,1,0,0,1,1-1h10.6a4.52,4.52,0,0,0,4.51-4.52V16.08A4.51,4.51,0,0,0,107.67,11.57ZM81.54,72.29V100a1,1,0,0,1-1,1H71.38a4.53,4.53,0,0,0-4.52,4.52v13.15a1,1,0,0,1-1.75.59L52.61,102.8A4.52,4.52,0,0,0,49,101H27.1a1,1,0,0,1-1-1V55.31a1,1,0,0,1,1-1H50.84a2.16,2.16,0,0,0,.27,0v5.11a4.53,4.53,0,0,0,4.52,4.52H74.71a1,1,0,0,1,.78.38l6.05,8Zm27.11-12.9a1,1,0,0,1-1,1H97.07a4.51,4.51,0,0,0-4.51,4.51V78a.93.93,0,0,1-.67.92.94.94,0,0,1-1.09-.33L78.31,62.15a4.57,4.57,0,0,0-3.6-1.78H55.63a1,1,0,0,1-1-1V16.08a1,1,0,0,1,1-1h52a1,1,0,0,1,1,1Z" style="fill:#fff"/></svg>