<svg viewBox="0 0 134.77 134.77" fill="none" xmlns="http://www.w3.org/2000/svg" xmlns:xlink="http://www.w3.org/1999/xlink" class="h-full w-full" id="iconWithBackground"><rect width="134.77" height="134.77" rx="16.29" style="fill:#f15a24"></rect><defs><linearGradient id="linearGradient" gradientUnits="userSpaceOnUse" gradientTransform="rotate(0)" style="transform-origin: center center;"><stop stop-color="#8e2de2"></stop><stop offset="1" stop-color="#4a00e0"></stop></linearGradient><radialGradient id="glare" cx="0" cy="0" r="1" gradientUnits="userSpaceOnUse" gradientTransform="translate(256) rotate(90) scale(512)"><stop stop-color="white"></stop><stop offset="1" stop-color="white" stop-opacity="0"></stop></radialGradient><clipPath id="clip"><use xlink:href="#r4"></use></clipPath></defs><svg xmlns="http://www.w3.org/2000/svg" xmlns:xlink="http://www.w3.org/1999/xlink" aria-hidden="true" role="img" x="0" y="0" class="iconify iconify--bi" width="134" height="134" viewBox="0 0 16 16" style="color: rgb(255, 255, 255);"><path fill="currentColor" d="M5.255 5.786a.237.237 0 0 0 .241.247h.825c.138 0 .248-.113.266-.25c.09-.656.54-1.134 1.342-1.134c.686 0 1.314.343 1.314 1.168c0 .635-.374.927-.965 1.371c-.673.489-1.206 1.06-1.168 1.987l.003.217a.25.25 0 0 0 .25.246h.811a.25.25 0 0 0 .25-.25v-.105c0-.718.273-.927 1.01-1.486c.609-.463 1.244-.977 1.244-2.056c0-1.511-1.276-2.241-2.673-2.241c-1.267 0-2.655.59-2.75 2.286zm1.557 5.763c0 .533.425.927 1.01.927c.609 0 1.028-.394 1.028-.927c0-.552-.42-.94-1.029-.94c-.584 0-1.009.388-1.009.94z"></path></svg></svg>