<svg id="Layer_1" data-name="Layer 1" xmlns="http://www.w3.org/2000/svg" viewBox="0 0 134.77 134.77"><rect width="134.77" height="134.77" rx="16.29" style="fill:#f15a24"/><path d="M114.9,50.43H97.85V31a4.39,4.39,0,0,0-4.39-4.4H18a4.4,4.4,0,0,0-4.4,4.4V83.71a4.4,4.4,0,0,0,4.4,4.4H37.86v13.78a6.29,6.29,0,0,0,6.28,6.28H114.9a6.29,6.29,0,0,0,6.28-6.28V56.71A6.29,6.29,0,0,0,114.9,50.43Zm-26.33-18a.51.51,0,0,1,.51-.51h6.18a.51.51,0,0,1,.52.51v4.83a.51.51,0,0,1-.52.51H89.08a.51.51,0,0,1-.51-.51Zm0,11.12a.51.51,0,0,1,.51-.51h6.18a.51.51,0,0,1,.52.51v4.83a.52.52,0,0,1-.52.52H89.08a.51.51,0,0,1-.51-.52ZM22.77,81.72a.51.51,0,0,1-.51.51H16.07a.51.51,0,0,1-.51-.51V76.88a.51.51,0,0,1,.51-.51h6.19a.51.51,0,0,1,.51.51Zm0-11.13a.51.51,0,0,1-.51.51H16.07a.51.51,0,0,1-.51-.51V65.76a.51.51,0,0,1,.51-.51h6.19a.51.51,0,0,1,.51.51Zm0-11.12a.51.51,0,0,1-.51.51H16.07a.51.51,0,0,1-.51-.51V54.64a.51.51,0,0,1,.51-.52h6.19a.51.51,0,0,1,.51.52Zm0-11.13a.51.51,0,0,1-.51.52H16.07a.51.51,0,0,1-.51-.52V43.51a.51.51,0,0,1,.51-.51h6.19a.51.51,0,0,1,.51.51Zm0-11.12a.51.51,0,0,1-.51.51H16.07a.51.51,0,0,1-.51-.51V32.39a.51.51,0,0,1,.51-.51h6.19a.51.51,0,0,1,.51.51Zm6.35,45a4.4,4.4,0,0,1-4.39-4.4V36.27a4.39,4.39,0,0,1,4.39-4.39h53.2a4.39,4.39,0,0,1,4.4,4.39V50.43H44.14a6.29,6.29,0,0,0-6.28,6.28V82.23Zm88.29,19.66a2.51,2.51,0,0,1-2.51,2.51H44.14a2.51,2.51,0,0,1-2.51-2.51V56.71a2.51,2.51,0,0,1,2.51-2.51H114.9a2.51,2.51,0,0,1,2.51,2.51Z" style="fill:#fff"/><path d="M62,77.11a7.39,7.39,0,1,0-7.39-7.39A7.39,7.39,0,0,0,62,77.11Z" style="fill:#fff"/><polygon points="73.64 93.81 62.62 85.46 47.49 99.5 110.45 99.5 91.03 74.08 73.64 93.81" style="fill:#fff"/></svg>