<svg width="134.77" height="134.77" xmlns="http://www.w3.org/2000/svg" viewBox="0 0 134.77 134.77"><g id="Layer_2" data-name="Layer 2"><rect width="134.77" height="134.77" rx="16.29" style="fill:#f15a24"/><path d="M102.54,29.8H46.77a3.9,3.9,0,0,0-3.91,3.9V76.55a15.17,15.17,0,1,0,7.81,13.26V59.47h48V76.55a15.17,15.17,0,1,0,7.81,13.26V33.7A3.9,3.9,0,0,0,102.54,29.8Zm-67,67.37a7.37,7.37,0,1,1,7.36-7.36A7.37,7.37,0,0,1,35.5,97.17Zm55.77,0a7.37,7.37,0,1,1,7.36-7.36A7.37,7.37,0,0,1,91.27,97.17Zm7.36-45.51h-48V37.6h48V51.66Z" style="fill:#fff"/></g></svg>