<svg width="134.77" height="134.77" xmlns="http://www.w3.org/2000/svg" viewBox="0 0 134.77 134.77"><g id="Layer_2" data-name="Layer 2"><rect width="134.77" height="134.77" rx="16.29" style="fill:#1565ff"/><circle cx="65.66" cy="63.35" r="5.23" style="fill:#fff"/><path d="M68,69.31H63.28a4.78,4.78,0,0,0-4.77,4.77v3.71h14.3V74.08A4.77,4.77,0,0,0,68,69.31Z" style="fill:#fff"/><path d="M65.66,29.21A5.23,5.23,0,1,0,60.43,24,5.23,5.23,0,0,0,65.66,29.21Z" style="fill:#fff"/><path d="M72.81,34.72A4.76,4.76,0,0,0,68,30H63.28a4.77,4.77,0,0,0-4.77,4.77v3.71h14.3Z" style="fill:#fff"/><circle cx="106.43" cy="63.97" r="5.23" style="fill:#fff"/><path d="M108.81,69.94h-4.76a4.77,4.77,0,0,0-4.77,4.77v3.7h14.3v-3.7A4.76,4.76,0,0,0,108.81,69.94Z" style="fill:#fff"/><path d="M106.43,52.31a16.1,16.1,0,0,0-7.29,1.75L80.72,34.71a16.27,16.27,0,1,0-29.78.75L40.57,40.23A16.27,16.27,0,1,0,35.72,65.4l16.42,29A16.25,16.25,0,1,0,76.74,97L95.61,80.69a16.26,16.26,0,1,0,10.82-28.38Zm-9.9,3.39a16.27,16.27,0,0,0-6.21,10.77l-8.47,0A16.28,16.28,0,0,0,67.17,51.77v-7a16.29,16.29,0,0,0,12.07-7.25ZM65.66,81.2A13.25,13.25,0,1,1,78.91,68,13.26,13.26,0,0,1,65.66,81.2Zm0-65.85A13.25,13.25,0,1,1,52.42,28.59,13.26,13.26,0,0,1,65.66,15.35ZM52.47,38.07a16.27,16.27,0,0,0,11.68,6.71v7a16.21,16.21,0,0,0-11.7,6.74L44,55.25a16.28,16.28,0,0,0,.6-4.33,16.06,16.06,0,0,0-2.24-8.19ZM15.1,50.92A13.24,13.24,0,1,1,28.34,64.17,13.26,13.26,0,0,1,15.1,50.92ZM38.27,63.77a16.34,16.34,0,0,0,4.66-5.7l8,3.08a16.21,16.21,0,0,0,12.7,22.92v5.86h-.3a16.14,16.14,0,0,0-8.77,2.58Zm25,55.65a13.24,13.24,0,1,1,13.24-13.24A13.26,13.26,0,0,1,63.31,119.42Zm3.31-29.16V84.17a16.27,16.27,0,0,0,15.23-14.7l8.36,0a16.13,16.13,0,0,0,3.34,9L74.81,94.69A16.29,16.29,0,0,0,66.62,90.26Zm39.81-8.44a13.25,13.25,0,1,1,13.25-13.24A13.26,13.26,0,0,1,106.43,81.82Z" style="fill:#fff"/><path d="M63.31,106.8a5.23,5.23,0,1,0-5.23-5.23A5.23,5.23,0,0,0,63.31,106.8Z" style="fill:#fff"/><path d="M65.69,107.54H60.92a4.76,4.76,0,0,0-4.76,4.77V116h14.3v-3.71A4.77,4.77,0,0,0,65.69,107.54Z" style="fill:#fff"/><path d="M28.34,51.54a5.23,5.23,0,1,0-5.23-5.22A5.23,5.23,0,0,0,28.34,51.54Z" style="fill:#fff"/><path d="M30.72,52.28H26a4.77,4.77,0,0,0-4.77,4.77v3.71h14.3V57.05A4.77,4.77,0,0,0,30.72,52.28Z" style="fill:#fff"/></g></svg>