<svg xmlns="http://www.w3.org/2000/svg" viewBox="0 0 134.77 134.77"><g id="Layer_2" data-name="Layer 2"><rect width="134.77" height="134.77" rx="16.29" style="fill:#1565ff"/><path d="M117.23,102.92h-5a2.44,2.44,0,0,1-2.44-2.44A2.45,2.45,0,0,0,107.39,98h-80a2.45,2.45,0,0,0-2.44,2.45,2.45,2.45,0,0,1-2.45,2.44H17.54a2.44,2.44,0,0,0-2.44,2.44v1.8a2.44,2.44,0,0,0,2.44,2.44h99.69a2.44,2.44,0,0,0,2.44-2.44v-1.8A2.44,2.44,0,0,0,117.23,102.92Z" style="fill:#fff"/><path d="M32.45,49.44h69.87a2.42,2.42,0,0,0,1.2-4.53l-33-18.81a7.1,7.1,0,0,0-7.09,0L31.23,44.92A2.42,2.42,0,0,0,32.45,49.44Z" style="fill:#fff"/><rect x="33.6" y="52.78" width="10.35" height="41.53" rx="2.37" style="fill:#fff"/><rect x="52.67" y="52.78" width="10.35" height="41.53" rx="2.37" style="fill:#fff"/><rect x="71.74" y="52.78" width="10.35" height="41.53" rx="2.37" style="fill:#fff"/><rect x="90.82" y="52.78" width="10.35" height="41.53" rx="2.37" style="fill:#fff"/></g></svg>