<svg width="134.77" height="134.77" xmlns="http://www.w3.org/2000/svg" viewBox="0 0 134.77 134.77"><g id="Layer_2" data-name="Layer 2"><rect width="134.77" height="134.77" rx="16.29" style="fill:#f15a24"/><path d="M67.51,44.73A29,29,0,1,0,96.4,73.83,29,29,0,0,0,67.51,44.73ZM58,50.06l.12.25c-.9,1.6-1.79,3.21-2.77,4.95l-3.18-2ZM55.4,71.85c.61-3.94,1.21-7.75,1.79-11.51l8.29,1.75v9.76Zm10.06,3.8v9.74l-8.28,1.74c-.58-3.77-1.17-7.55-1.77-11.48Zm-16-19.83,4.41,2.83-2.1,13.23H42.09A25.19,25.19,0,0,1,49.41,55.82ZM42.07,75.64h9.65l2.1,13.18-4.4,2.83A25.38,25.38,0,0,1,42.07,75.64ZM57.93,97.4l-5.79-3.18,3.15-2L58,97.11A2.49,2.49,0,0,0,57.93,97.4Zm7.55,1.38c-3.51-1.73-5.19-4.73-6.83-8.2l6.83-1.52Zm0-40.38-6.83-1.49c1.58-3.46,3.3-6.46,6.83-8.23Zm11.35-8.33,5.8,3.2-3.16,2-2.78-5C76.75,50.23,76.79,50.15,76.84,50.07Zm2.52,25.58c-.6,3.92-1.19,7.7-1.77,11.48l-8.28-1.75V75.65Zm-10-3.79V62.08l8-1.68A41.42,41.42,0,0,1,79.1,71.86Zm0-23.16c3.52,1.71,5.21,4.73,6.84,8.23l-6.84,1.46Zm0,50.07v-9.7l6.84,1.48C74.52,94,72.84,97,69.28,98.77Zm7.57-1.37-.15-.23,2.77-5,3.17,2Zm8.51-5.75L81,88.81c.7-4.4,1.39-8.71,2.1-13.15h9.62A25.27,25.27,0,0,1,85.36,91.65Zm-2.3-19.77c-.7-4.37-1.39-8.71-2.11-13.22l4.41-2.84A25.43,25.43,0,0,1,92.7,71.88Z" style="fill:#fff"/><path d="M95.74,25.11H90.19V21.16q0-.37,0-.75a8.58,8.58,0,0,0-4.2-6.7,9.13,9.13,0,0,0-8.18-.61L36.36,25.51a9.25,9.25,0,0,0-6.57,8.84v78.77A9.25,9.25,0,0,0,39,122.36H95.74a9.25,9.25,0,0,0,9.24-9.24V34.35A9.25,9.25,0,0,0,95.74,25.11ZM79.21,17.43l.25-.09a4.58,4.58,0,0,1,4.15.28,4,4,0,0,1,2,3.16c0,.12,0,.25,0,.38v3.95h-32Zm21.21,95.69a4.69,4.69,0,0,1-4.68,4.68H39a4.69,4.69,0,0,1-4.68-4.68V34.35A4.69,4.69,0,0,1,39,29.67H95.74a4.69,4.69,0,0,1,4.68,4.68Z" style="fill:#fff"/></g></svg>