<svg id="Layer_1" data-name="Layer 1" width="134.77" height="134.77" xmlns="http://www.w3.org/2000/svg" viewBox="0 0 134.77 134.77"><rect width="134.77" height="134.77" rx="16.29" style="fill:#f15a24"/><path d="M114.82,57.44a21.52,21.52,0,0,0-1-2.93,3.58,3.58,0,0,0-3.29-2.3c-1.2,0-2.41-.07-3.61-.08a.48.48,0,0,1-.53-.37c-.28-.81-.56-1.62-.88-2.42-1.1-2.74-2.2-5.47-3.32-8.2A4.75,4.75,0,0,0,100,38.83a12.09,12.09,0,0,0-1.68-.77,30,30,0,0,0-8.39-1.75c-2.55-.18-5.1-.3-7.66-.33l-.47-1.14c-.84-2.07-1.68-4.15-2.54-6.21a6.84,6.84,0,0,0-.72-1.26,7,7,0,0,0-3.33-2.19A30.27,30.27,0,0,0,65,23.3c-3.46-.13-6.93-.15-10.4-.18a75.56,75.56,0,0,0-9.86.5,27.94,27.94,0,0,0-7.2,1.79,5.11,5.11,0,0,0-3,2.92q-2,5.21-4.09,10.4a.59.59,0,0,1-.64.46c-1.31,0-2.63.05-3.95.15a3.08,3.08,0,0,0-2.64,1.75,23.31,23.31,0,0,0-1.41,3.82,1.92,1.92,0,0,0,1.87,2.41c.68,0,1.37.06,2.06.09l1.77.07c-.36.91-.63,1.76-1,2.55a5.77,5.77,0,0,0-.57,2.61q0,5.14-.08,10.27c0,.71,0,1.41,0,2.11,0,2.52,0,5,.08,7.57a2.2,2.2,0,0,0,2,2.19,8.86,8.86,0,0,0,.9.07c-.1.26-.21.53-.32.8a.49.49,0,0,1-.54.39c-1.22,0-2.44,0-3.66,0a3.38,3.38,0,0,0-3.05,1.86,15.33,15.33,0,0,0-1.32,3.75,1.91,1.91,0,0,0,2,2.43c.58,0,1.17,0,1.76,0h1.9c-.09.27-.13.42-.18.56-.31.8-.65,1.59-.94,2.4a6.25,6.25,0,0,0-.4,1.57c-.1,1.36-.16,2.72-.16,4.08,0,3.28,0,6.56,0,9.84l0,6.88a1.17,1.17,0,0,0,.08.5,2.42,2.42,0,0,0,2.24,1.6c2.47,0,4.95,0,7.43.07a2.55,2.55,0,0,0,2.49-2.31l.09-3.09c0-.68,0-.68.68-.68H73.44v.53c0,1,.06,2.09.08,3.14a2.29,2.29,0,0,0,1.53,2.18,3.29,3.29,0,0,0,1.22.2c1.87,0,3.75,0,5.63,0a16.18,16.18,0,0,0,1.84-.08,2.32,2.32,0,0,0,2-2.16c0-1.07.06-2.15.06-3.22,0-5,0-10,0-14.92a12.15,12.15,0,0,0-1.1-5.58c-.22-.45-.35-.93-.55-1.47l.34,0c1.16,0,2.32-.06,3.48-.06A1.67,1.67,0,0,0,89.58,83a2.33,2.33,0,0,0,.18-1.27c2.74,0,5.49,0,8.23,0,.46,0,.55.17.55.57,0,1.09,0,2.18.09,3.26a2.3,2.3,0,0,0,2.27,2.21q3.82,0,7.65,0a2.28,2.28,0,0,0,2.25-2.25c0-1.39.06-2.78.06-4.17,0-4.49-.06-9,0-13.46a13.26,13.26,0,0,0-1.2-6.25c-.18-.38-.29-.8-.47-1.3h.58c1.06,0,2.12,0,3.18,0a1.73,1.73,0,0,0,1.94-1.52A2.73,2.73,0,0,0,114.82,57.44Zm-30-16.66a47,47,0,0,1,9.89,1.08l.5.14a4.63,4.63,0,0,1,3.17,2.61,49,49,0,0,1,3.71,9.64c0,.19.09.38.15.63-.85.21-1.67.42-2.49.6A78.41,78.41,0,0,1,87,57c-2.6.12-5.21.21-7.82.2a99.09,99.09,0,0,1-17.45-1.42c-1.21-.22-2.4-.53-3.61-.78-.43-.08-.5-.26-.39-.67A51.83,51.83,0,0,1,61,45.76a22.15,22.15,0,0,1,1-2.07,2.5,2.5,0,0,1,.85-.86,12.14,12.14,0,0,1,4.21-1.3,51.89,51.89,0,0,1,9-.72C79,40.8,81.91,40.7,84.85,40.78Zm-50.21.54a54.36,54.36,0,0,1,4-10.22,2.61,2.61,0,0,1,1.59-1.48,40.34,40.34,0,0,1,4-1,71.2,71.2,0,0,1,12-.81A103.55,103.55,0,0,1,68,28.32a21.82,21.82,0,0,1,4.74,1,3.56,3.56,0,0,1,2.18,1.82c.66,1.4,1.37,2.77,2.06,4.16.05.11.16.48.29.76-3,.1-6,.24-9,.45A25.88,25.88,0,0,0,61,38.2a5.33,5.33,0,0,0-3.29,3.12l-1.17,3h-.32c-3.31-.12-6.62-.18-9.92-.4a65.41,65.41,0,0,1-11.12-1.71C34.46,42,34.46,42,34.64,41.32ZM32.1,53.68a1.66,1.66,0,0,1,1.76-1.63,6.66,6.66,0,0,1,3.19.49c2,.9,4,1.86,6,2.8a8.73,8.73,0,0,1,.91.58,2,2,0,0,1,.79,2.23,1.73,1.73,0,0,1-1.71,1.32c-1.3.11-2.6.16-4.13.24-1.4-.15-3-.29-4.64-.5a3.74,3.74,0,0,1-1.3-.52A1.9,1.9,0,0,1,32,57C32,55.88,32,54.78,32.1,53.68ZM42.83,95A1.35,1.35,0,0,1,42,96a5.67,5.67,0,0,1-2.41.37h-2.4v0c-1.32-.07-2.64-.08-4-.23a7.07,7.07,0,0,1-2-.62,1.87,1.87,0,0,1-1.16-1.81c0-1.08,0-2.15.08-3.22a1.83,1.83,0,0,1,1.63-1.69,4.83,4.83,0,0,1,2.5.22,41.89,41.89,0,0,1,7.22,3.28c.15.08.29.2.43.29A2,2,0,0,1,42.83,95ZM40.41,80.25c-2.47-.35-4.91-.89-7.35-1.36-.55-.1-.54-.13-.4-.68a53.38,53.38,0,0,1,4.25-10.63,2.28,2.28,0,0,1,.88-.89,12.36,12.36,0,0,1,4.29-1.31,55.89,55.89,0,0,1,9.58-.72c2.81,0,5.62-.1,8.43,0a44.3,44.3,0,0,1,9.46,1,18.1,18.1,0,0,1,2.13.78,2.14,2.14,0,0,1,1.11,1,45.57,45.57,0,0,1,4.26,10.61c.16.63.16.63-.45.78a66.48,66.48,0,0,1-9.39,1.59c-4,.41-8,.59-12,.61A106.47,106.47,0,0,1,40.41,80.25Zm39.12,14a1.41,1.41,0,0,1-.73,1.11,5.33,5.33,0,0,1-2.82.93c-1.22.06-2.44,0-3.65,0h0c-1.25,0-2.5,0-3.74,0A1.81,1.81,0,0,1,66.83,95a1.83,1.83,0,0,1,.45-2,4,4,0,0,1,.9-.73c.78-.44,1.58-.87,2.4-1.25q2.08-.94,4.22-1.82a6.1,6.1,0,0,1,3.08-.42,1.7,1.7,0,0,1,1.63,1.64C79.57,91.72,79.55,93,79.53,94.21Zm25.1-23.95a1.62,1.62,0,0,1-.42.86,3.86,3.86,0,0,1-2.72,1.2c-1.39.13-2.77.17-4.16.25v-.16c-1.19,0-2.38,0-3.56,0a2,2,0,0,1-.91-3.69,24.63,24.63,0,0,1,2.53-1.36c1.71-.77,3.43-1.52,5.19-2.16a6.16,6.16,0,0,1,2.19-.25,1.76,1.76,0,0,1,1.82,1.76C104.66,67.88,104.66,69.07,104.63,70.26Z" style="fill:#fff"/></svg>