<svg id="Layer_1" data-name="Layer 1" width="134.77" height="134.77" xmlns="http://www.w3.org/2000/svg" viewBox="0 0 134.77 134.77"><rect width="134.77" height="134.77" rx="16.29" style="fill:#f15a24"/><path d="M84,18.26a10.62,10.62,0,0,1,2.07,1,9.78,9.78,0,0,1,4.79,8.08A10.37,10.37,0,0,1,76.36,37.64a10.49,10.49,0,0,1-6.31-10.85,10.38,10.38,0,0,1,8.14-8.94C81.78,17.32,83.46,18.07,84,18.26Z" style="fill:#fff"/><path d="M86.51,52.07c-1,2.91-2,5.78-3,8.65-1.61,4.69-3.18,9.4-4.81,14.08-2.19,6.26-4.43,12.5-6.66,18.74q-3.63,10.13-7.31,20.23c-.85,2.34-2.4,3.14-5.31,3.33a4.83,4.83,0,0,1-4.72-3.41,6.72,6.72,0,0,1,.42-4.55c1.31-3.66,2.67-7.3,4-11,1-2.64,2.05-5.25,2.79-8,1.21-4.37,2.18-8.81,3.13-13.27-1.52,2.14-3,4.3-4.55,6.43-1.26,1.77-2.58,3.5-3.86,5.25a8.55,8.55,0,0,0-.42.86,5.22,5.22,0,0,1-4.8,3,5,5,0,0,1-4.79-3,5.8,5.8,0,0,1,.38-5.2c1.23-2.44,2.6-4.81,3.73-7.29,1.65-3.63,3.15-7.32,4.7-11,1.33-3.15,2.64-6.3,4-9.44a44.26,44.26,0,0,0,1.76-4.65c-.9.58-1.83,1.14-2.72,1.75C56.73,54.82,55,56,53.25,57.26a24.52,24.52,0,0,0-2.41,2c-2.15,2-4.25,4-6.41,6a17.74,17.74,0,0,1-3,2.45,3.93,3.93,0,0,1-5.07-.87,4.17,4.17,0,0,1,.07-5.71c2.31-2.23,4.71-4.36,7.07-6.53.85-.78,1.73-1.54,2.54-2.36,2.78-2.76,6.26-4.55,9.41-6.8,2.45-1.75,4.94-3.45,7.51-5a9.37,9.37,0,0,1,3.64-1.2,22.89,22.89,0,0,1,5.61,0c3.35.47,6.69,1.1,10,1.89a29.15,29.15,0,0,1,6.14,2.18c3.74,1.87,7.39,3.94,11,6A5,5,0,0,1,100.87,51c3,4.53,5.92,9.06,8.82,13.63a4.26,4.26,0,0,1,.08,4.41,3.92,3.92,0,0,1-3.49,2.15,4.24,4.24,0,0,1-3.75-1.94c-1.88-2.82-3.69-5.68-5.52-8.53-.93-1.44-1.81-2.9-2.77-4.32a2.47,2.47,0,0,0-.9-.67C91.11,54.52,88.87,53.33,86.51,52.07Z" style="fill:#fff"/><path d="M34.85,117.05c-5.62.35-10.43-4.79-10.42-10.27a10.48,10.48,0,1,1,21,.1C45.36,112.25,40.6,117.43,34.85,117.05Z" style="fill:#fff"/></svg>