<svg id="Layer_1" data-name="Layer 1" xmlns="http://www.w3.org/2000/svg" viewBox="0 0 134.77 134.77"><rect width="134.77" height="134.77" rx="16.29" style="fill:#f15a24"/><path d="M51.47,48.79a13,13,0,1,0-13-13A13,13,0,0,0,51.47,48.79Zm0-21.24a8.24,8.24,0,1,1-8.24,8.24A8.25,8.25,0,0,1,51.47,27.55Z" style="fill:#fff"/><path d="M110.39,48.55a2.4,2.4,0,0,0-2.22-.24L78.59,60.15,66.28,54.69,67.93,53a23.86,23.86,0,1,0-33,0l1.77,1.77L24.68,60.59a2.37,2.37,0,0,0-1.35,2.14v52.51a2.38,2.38,0,0,0,2.38,2.38,2.35,2.35,0,0,0,1-.23l24.3-11.73,26.53,11.76a2.38,2.38,0,0,0,1.85,0l30.51-12.21a2.37,2.37,0,0,0,1.5-2.21V50.52A2.36,2.36,0,0,0,110.39,48.55Zm-78-12.76A19.09,19.09,0,1,1,64.6,49.63L51.47,62.76,38.3,49.59A18.93,18.93,0,0,1,32.38,35.79Zm74.3,65.63L78.59,112.66,52,100.85a2.37,2.37,0,0,0-2,0L28.1,111.45V64.23l12.2-5.9,9.48,9.48a2.38,2.38,0,0,0,1.69.7,2.34,2.34,0,0,0,1.68-.7l9.52-9.51,14.91,6.61a2.42,2.42,0,0,0,1.85,0L106.68,54Z" style="fill:#fff"/><path d="M43,81.44l2.36-2.36A2.38,2.38,0,1,0,42,75.71l-2.35,2.36-2.36-2.36A2.38,2.38,0,0,0,34,79.08l2.36,2.36L34,83.8a2.39,2.39,0,0,0,1.68,4.07,2.42,2.42,0,0,0,1.69-.7l2.36-2.36L42,87.17a2.42,2.42,0,0,0,1.69.7A2.39,2.39,0,0,0,45.4,83.8Z" style="fill:#fff"/><path d="M46,79.94l0,4.76a18.84,18.84,0,0,0,6.34-1.25L50.69,79A14.16,14.16,0,0,1,46,79.94Z" style="fill:#fff"/><path d="M74.56,68.58A19.67,19.67,0,0,0,68,69.71l1.56,4.51a14.82,14.82,0,0,1,5-.87h0a16.4,16.4,0,0,1,3.42.37l1-4.66a21,21,0,0,0-4.4-.48Z" style="fill:#fff"/><path d="M88,81.24l4-2.66A23.86,23.86,0,0,0,84.23,71l-2.37,4.13A19.27,19.27,0,0,1,88,81.24Z" style="fill:#fff"/><path d="M59.12,74.42c-1.4.88-2.85,1.8-4.33,2.62l2.32,4.17c1.6-.89,3.1-1.84,4.55-2.76s2.58-1.63,3.85-2.35L63.18,72C61.8,72.72,60.44,73.59,59.12,74.42Z" style="fill:#fff"/><path d="M90.31,85.23A34.13,34.13,0,0,1,92,89.3a6.5,6.5,0,1,0,4.72-.9,37.77,37.77,0,0,0-2.11-5.25Zm5.16,11.29a1.74,1.74,0,1,1,1.74-1.74A1.74,1.74,0,0,1,95.47,96.52Z" style="fill:#fff"/></svg>