<svg width="134.77" height="134.77" xmlns="http://www.w3.org/2000/svg" viewBox="0 0 134.77 134.77"><g id="Layer_2" data-name="Layer 2"><rect width="134.77" height="134.77" rx="16.29" style="fill:#1565ff"/><path d="M119.14,100.89h-8.68a12.24,12.24,0,0,0,7-8.44c1.41-5.3-.19-9.84-4.33-13.42-4.33-3.75-6.76-8.17-5.3-14.23-1,.49-1.86.9-2.72,1.38-6,3.32-10.16,10-6.88,17.85a1.52,1.52,0,1,1-2.79,1.17c-.45-1.14-.78-2.32-1.17-3.53-.07.09-.18.22-.27.35a12.94,12.94,0,0,0,0,14.2,13.35,13.35,0,0,0,5.35,4.67H92.28l-30-53.62a4.56,4.56,0,0,0-7.91-.1L22.52,100.89H15.63a2.23,2.23,0,0,0,0,4.46H119.14a2.23,2.23,0,0,0,0-4.46ZM55.9,75.63a2.86,2.86,0,0,1,5,.06L75,100.89h-34Z" style="fill:#fff"/></g></svg>