<svg width="134.77" height="134.77" xmlns="http://www.w3.org/2000/svg" viewBox="0 0 134.77 134.77"><g id="Layer_2" data-name="Layer 2"><rect width="134.77" height="134.77" rx="16.29" style="fill:#1565ff"/><path d="M115.56,78.47a16.4,16.4,0,0,1-11.38-5.33h0a.94.94,0,0,1,.51-1.54l2-.44s-4.1-11-4-21.5a4.79,4.79,0,0,1,2.85-4.27,24.7,24.7,0,0,0,14.27-18.7,3.82,3.82,0,0,0-2.8-4.31,3.72,3.72,0,0,0-4.55,3.07,17.25,17.25,0,0,1-34.14-5,3.79,3.79,0,0,0-2.22-4.12A3.72,3.72,0,0,0,71,19.18a24.69,24.69,0,0,0,8.89,22.88,4.74,4.74,0,0,1,1.4,5.54,53.91,53.91,0,0,0-3.24,29.87l3.22-.71a1,1,0,0,1,1.14.86A25.46,25.46,0,0,0,98.23,99.07a4.53,4.53,0,0,0,1.68.33,4.48,4.48,0,0,0,4.23-3,4.59,4.59,0,0,0-2.7-5.64A16.47,16.47,0,0,1,91.27,75.28a1,1,0,0,1,.75-.89l1.2-.27a.93.93,0,0,1,1,.46,26.17,26.17,0,0,0,3.36,4.6,25.33,25.33,0,0,0,17.66,8.23h.19a4.47,4.47,0,0,0,4.47-4.57A4.55,4.55,0,0,0,115.56,78.47Z" style="fill:#fff"/><path d="M50.17,58A10.29,10.29,0,1,0,39.89,47.71,10.29,10.29,0,0,0,50.17,58Z" style="fill:#fff"/><path d="M95.3,38.35A10.29,10.29,0,1,0,85,28.06,10.29,10.29,0,0,0,95.3,38.35Z" style="fill:#fff"/><path d="M70.68,41.93a3.8,3.8,0,0,0-3.35,3.28,17.25,17.25,0,0,1-34.12-5.15A3.79,3.79,0,0,0,31,35.94a3.72,3.72,0,0,0-5.11,2.89,24.73,24.73,0,0,0,11,24.39,4.25,4.25,0,0,1,1.9,3.6,48.88,48.88,0,0,0,2.93,16.85,7.21,7.21,0,0,1-1.58,7.51,16.52,16.52,0,0,1-18.72,3.34,4.59,4.59,0,0,0-6,1.87,4.47,4.47,0,0,0,2,6.15,25.45,25.45,0,0,0,33.4-11h0a3.09,3.09,0,0,1,1.56-1.47,2.56,2.56,0,0,1,2.35.78A16.52,16.52,0,0,1,56,111.59a4.55,4.55,0,0,0,.67,6.11,4.48,4.48,0,0,0,6.51-.78,25.48,25.48,0,0,0-2.28-32.61,16.73,16.73,0,0,1-3.53-5.54,33.3,33.3,0,0,1-2-8.38,4.29,4.29,0,0,1,2.94-4.5A24.72,24.72,0,0,0,74.72,46.2,3.73,3.73,0,0,0,70.68,41.93Z" style="fill:#fff"/></g></svg>