<svg id="Layer_1" data-name="Layer 1" xmlns="http://www.w3.org/2000/svg" viewBox="0 0 134.77 134.77"><rect width="134.77" height="134.77" rx="16.29" style="fill:#39b54a"/><path d="M33.37,34.94l-7.63,6.28a5.12,5.12,0,0,1-3.06,1.13,3.84,3.84,0,0,1-3.89-4,4.73,4.73,0,0,1,2.09-3.66L32.55,25.3A7.15,7.15,0,0,1,37,23.36c1.87,0,5.31.74,5.31,6V72.63c0,4.26-3,5-4.49,5s-4.48-.75-4.48-5Z" style="fill:#fff"/><path d="M55.72,62.38c-3.59,0-4.26-2.54-4.26-3.81s.67-3.81,4.26-3.81H66.49c3.59,0,4.26,2.54,4.26,3.81s-.67,3.81-4.26,3.81Z" style="fill:#fff"/><path d="M111.57,58.27c3.89,0,4.41,2.69,4.41,3.81S115.46,66,111.57,66h-3.66v6.81c0,4.11-2.92,4.86-4.41,4.86s-4.42-.75-4.42-4.86V66H79.8C74.86,66,74,62.53,74,61a7.72,7.72,0,0,1,1.65-4.48L96.24,27.17c2.32-3.29,4.41-3.81,6.06-3.81s5.61.89,5.61,6.65V58.27ZM99.08,36.22h-.15L83.53,58.27H99.08Z" style="fill:#fff"/><path d="M24.81,85.63c0-3,2.06-3.44,3.07-3.44s3.1.48,3.1,3.44V99.75h.11l6.28-6.61A3.6,3.6,0,0,1,40,91.83a2.73,2.73,0,0,1,2.8,2.8,3.18,3.18,0,0,1-1.27,2.47l-3.81,3.51,4.71,5.27a3.32,3.32,0,0,1,1,2.32,2.92,2.92,0,0,1-3,3,3.8,3.8,0,0,1-3-1.72l-6.39-7.59H31v5.87c0,3-2.05,3.44-3.1,3.44s-3.07-.48-3.07-3.44Z" style="fill:#fff"/><path d="M47.09,85.66c0-3,2.1-3.47,3.1-3.47s3.11.48,3.11,3.47v22.06c0,3-2.1,3.47-3.11,3.47s-3.1-.48-3.1-3.47Z" style="fill:#fff"/><path d="M60.74,97.74a2.16,2.16,0,0,1-2.17-2.21A2.62,2.62,0,0,1,60,93.25a11.79,11.79,0,0,1,6.16-1.64c6.25,0,8.56,3.06,8.56,9.83V108c0,2.73-1.9,3.21-2.84,3.21a2.68,2.68,0,0,1-2.76-2.35H69c-.93,1.53-3.06,2.43-5.27,2.43-2.95,0-6.76-1.46-6.76-5.83,0-5.39,6.54-6.28,12-6.28v-.3c0-1.65-1.27-2.69-3.18-2.69a8.59,8.59,0,0,0-3.62,1.19A3.29,3.29,0,0,1,60.74,97.74Zm8.41,5h-.79c-2.69,0-5.72.33-5.72,2.54,0,1.42,1.42,1.9,2.66,1.9a3.53,3.53,0,0,0,3.85-3.81Z" style="fill:#fff"/><path d="M78,107.68a2.33,2.33,0,0,1,2.36-2.39,3.15,3.15,0,0,1,1.87.67A5.27,5.27,0,0,0,85.33,107c1,0,2.21-.42,2.21-1.61s-1.16-1.5-3.7-2.1-5.42-1.94-5.42-5.45c0-4.45,4.18-6.24,7.73-6.24a11.62,11.62,0,0,1,5,1.08,2.54,2.54,0,0,1,1.57,2.24,2.22,2.22,0,0,1-2.32,2.32,3.33,3.33,0,0,1-1.57-.52,4.68,4.68,0,0,0-2.5-.71c-1.16,0-2.32.41-2.32,1.49s1,1.31,3.4,1.83c2.84.64,6,2.1,6,5.72,0,4.71-4.15,6.36-8,6.36a12,12,0,0,1-6-1.46A2.69,2.69,0,0,1,78,107.68Z" style="fill:#fff"/><path d="M111.83,104.84a2.25,2.25,0,0,1,2.36,2.31,2.68,2.68,0,0,1-1.08,2.1,10.53,10.53,0,0,1-6.84,2.17c-5.61,0-10.25-3.56-10.25-9.83,0-6.1,4.41-10,10.06-10a8.78,8.78,0,0,1,9,7.21,6.25,6.25,0,0,1,.19,1.42c0,2.09-1.23,3-3.18,3H101.89c.19,2.06,2.24,3.52,4.45,3.52a5.58,5.58,0,0,0,3.55-1.09A3.17,3.17,0,0,1,111.83,104.84Zm-2-5.46a3.38,3.38,0,0,0-3.66-3.55,4.06,4.06,0,0,0-4.23,3.55Zm-3.59-9.94a3.2,3.2,0,1,1,3.36-3.18A3.26,3.26,0,0,1,106.19,89.44Z" style="fill:#fff"/></svg>