<svg id="Layer_1" data-name="Layer 1" xmlns="http://www.w3.org/2000/svg" viewBox="0 0 134.77 134.77"><rect width="134.77" height="134.77" rx="16.29" style="fill:#39b54a"/><path d="M17.22,68.7a4.12,4.12,0,0,1,4.19-4.11c1.19,0,2.39.37,3.88,2.32A10.36,10.36,0,0,0,33.74,71c5.31,0,9.87-3.66,9.87-10.09,0-8.15-6-10.55-11.81-10.55a28.8,28.8,0,0,0-6.36.83,9.45,9.45,0,0,1-2.24.37c-1,0-3.59-.45-3.51-4.11l.52-18c.08-3.44,1.72-5.08,5.16-5.08H46.68c3.81,0,4.48,2.69,4.48,4s-.67,4-4.48,4H28.88l-.52,11.44a27.62,27.62,0,0,1,6.21-.67c10.39,0,18.24,6,18.24,16.74,0,11.74-8.75,18.69-19.29,18.69-6.43,0-11.52-2.39-14.88-6.43A5.18,5.18,0,0,1,17.22,68.7Z" style="fill:#fff"/><path d="M58.94,62.72c-3.59,0-4.26-2.54-4.26-3.81s.67-3.82,4.26-3.82H69.7c3.59,0,4.26,2.55,4.26,3.82s-.67,3.81-4.26,3.81Z" style="fill:#fff"/><path d="M107.61,49.34v.15a13.09,13.09,0,0,1,9.94,12.86c0,10.54-8.3,16.29-18.47,16.29S80.62,72.89,80.62,62.35a13.16,13.16,0,0,1,9.94-12.86v-.15c-4.71-1.72-8.22-5.46-8.22-11.59,0-9,7.47-14.73,16.74-14.73s16.75,5.38,16.75,14.35C115.83,43.51,112.39,47.77,107.61,49.34Zm-8.53,3.88a8.84,8.84,0,0,0-9.19,9.05c0,5.53,4,8.82,9.19,8.82s9.13-3.29,9.13-8.82A8.92,8.92,0,0,0,99.08,53.22Zm0-22.8c-4.41,0-7.62,2.92-7.62,7.48a7.4,7.4,0,0,0,7.62,7.7,7.69,7.69,0,0,0,7.71-7.7A7.46,7.46,0,0,0,99.08,30.42Z" style="fill:#fff"/><path d="M25,86c0-2.95,2.05-3.44,3.06-3.44S31.21,83,31.21,86v14.13h.11l6.28-6.62a3.58,3.58,0,0,1,2.65-1.3,2.73,2.73,0,0,1,2.8,2.8,3.18,3.18,0,0,1-1.27,2.47L38,101l4.71,5.27a3.32,3.32,0,0,1,1,2.32,2.92,2.92,0,0,1-2.95,3,3.81,3.81,0,0,1-3-1.72l-6.39-7.59h-.11v5.87c0,3-2.06,3.44-3.11,3.44S25,111,25,108.09Z" style="fill:#fff"/><path d="M47.32,86c0-3,2.09-3.48,3.1-3.48s3.1.49,3.1,3.48v22c0,3-2.09,3.48-3.1,3.48s-3.1-.49-3.1-3.48Z" style="fill:#fff"/><path d="M61,98.07a2.15,2.15,0,0,1-2.17-2.2,2.62,2.62,0,0,1,1.46-2.28,11.83,11.83,0,0,1,6.17-1.65c6.24,0,8.56,3.07,8.56,9.83v6.54c0,2.73-1.91,3.22-2.84,3.22a2.7,2.7,0,0,1-2.77-2.36h-.11c-.94,1.54-3.07,2.43-5.27,2.43-3,0-6.77-1.46-6.77-5.83,0-5.38,6.54-6.28,12-6.28v-.3c0-1.64-1.27-2.69-3.17-2.69a8.65,8.65,0,0,0-3.63,1.2A3.22,3.22,0,0,1,61,98.07Zm8.41,5h-.78c-2.7,0-5.72.34-5.72,2.54,0,1.43,1.42,1.91,2.65,1.91a3.52,3.52,0,0,0,3.85-3.81Z" style="fill:#fff"/><path d="M78.27,108a2.33,2.33,0,0,1,2.35-2.39,3.22,3.22,0,0,1,1.87.67,5.32,5.32,0,0,0,3.07,1c1,0,2.2-.41,2.2-1.61s-1.16-1.49-3.7-2.09-5.42-1.94-5.42-5.46c0-4.44,4.19-6.24,7.74-6.24A11.66,11.66,0,0,1,91.43,93,2.53,2.53,0,0,1,93,95.27a2.21,2.21,0,0,1-2.31,2.32,3.21,3.21,0,0,1-1.57-.53,4.78,4.78,0,0,0-2.51-.71c-1.16,0-2.31.41-2.31,1.5s1,1.31,3.4,1.83c2.84.63,5.94,2.09,5.94,5.72,0,4.71-4.15,6.35-8,6.35a11.84,11.84,0,0,1-6-1.46A2.67,2.67,0,0,1,78.27,108Z" style="fill:#fff"/><path d="M112.06,105.17a2.25,2.25,0,0,1,2.35,2.32,2.64,2.64,0,0,1-1.08,2.09,10.53,10.53,0,0,1-6.84,2.17c-5.61,0-10.24-3.55-10.24-9.83,0-6.09,4.41-10,10-10a8.8,8.8,0,0,1,9,7.22,6.81,6.81,0,0,1,.18,1.42c0,2.09-1.23,3-3.17,3H102.12c.18,2,2.24,3.51,4.44,3.51a5.6,5.6,0,0,0,3.56-1.08A3.1,3.1,0,0,1,112.06,105.17ZM110,99.72a3.38,3.38,0,0,0-3.66-3.55,4.05,4.05,0,0,0-4.22,3.55Zm-3.59-10a3.25,3.25,0,0,1-3.32-3.17,3.35,3.35,0,0,1,6.69,0A3.24,3.24,0,0,1,106.41,89.77Z" style="fill:#fff"/></svg>