<svg id="Layer_1" data-name="Layer 1" xmlns="http://www.w3.org/2000/svg" viewBox="0 0 134.77 134.77"><rect width="134.77" height="134.77" rx="16.29" style="fill:#39b54a"/><path d="M31.51,69.41a3.73,3.73,0,0,1-3.2,2,3.26,3.26,0,0,1-3.43-3.26,4.52,4.52,0,0,1,1-2.68l7-9.6-.06-.06a11.82,11.82,0,0,1-4.34.75,12.8,12.8,0,0,1-12.91-13c0-8.57,6.45-14.17,14.74-14.17,8.45,0,14.79,6.06,14.79,13.88,0,4.63-1.54,7.77-4.17,11.94ZM30.42,35.13c-4.62,0-7.77,3.32-7.77,8.12,0,4.57,3.09,7.88,7.66,7.88a7.59,7.59,0,0,0,7.88-8A7.73,7.73,0,0,0,30.42,35.13Z" style="fill:#fff"/><path d="M48.25,59.76c-2.74,0-3.26-1.95-3.26-2.92s.52-2.91,3.26-2.91h8.22c2.75,0,3.26,1.94,3.26,2.91s-.51,2.92-3.26,2.92Z" style="fill:#fff"/><path d="M77.44,38.79l-5.83,4.8a3.94,3.94,0,0,1-2.34.86,2.93,2.93,0,0,1-3-3,3.61,3.61,0,0,1,1.6-2.8l8.91-7.2a5.51,5.51,0,0,1,3.43-1.48c1.43,0,4.06.57,4.06,4.57V67.58c0,3.26-2.29,3.83-3.43,3.83s-3.43-.57-3.43-3.83Z" style="fill:#fff"/><path d="M105.09,29.42c7,0,13.48,4.06,13.48,11.83,0,5.2-2.91,8.79-6.51,12.22L100.41,64.61h15.25c3,0,3.48,2.12,3.48,3.14s-.51,3.15-3.48,3.15H95.84c-4.12,0-4.63-2.35-4.63-3.6s.4-2.4,2.34-4.29L107.32,49.3c2.51-2.45,4.11-4.8,4.11-7.94A6.09,6.09,0,0,0,105,35.13c-2.86,0-4.92,1.55-6.23,4.4a3.92,3.92,0,0,1-3.43,2.57,3.13,3.13,0,0,1-3.25-3.19,5,5,0,0,1,.57-2.12A13.51,13.51,0,0,1,105.09,29.42Z" style="fill:#fff"/><path d="M25.25,79.56c0-3,2.05-3.44,3.06-3.44s3.1.49,3.1,3.44V93.69h.12l6.28-6.62a3.6,3.6,0,0,1,2.65-1.31,2.73,2.73,0,0,1,2.8,2.81A3.17,3.17,0,0,1,42,91l-3.81,3.52,4.71,5.27a3.3,3.3,0,0,1,1,2.31,2.91,2.91,0,0,1-2.95,3,3.79,3.79,0,0,1-3-1.71l-6.39-7.59h-.12v5.87c0,3-2.05,3.43-3.1,3.43s-3.06-.48-3.06-3.43Z" style="fill:#fff"/><path d="M47.53,79.6c0-3,2.09-3.48,3.1-3.48s3.1.49,3.1,3.48v22.05c0,3-2.09,3.47-3.1,3.47s-3.1-.48-3.1-3.47Z" style="fill:#fff"/><path d="M61.17,91.67A2.16,2.16,0,0,1,59,89.46a2.62,2.62,0,0,1,1.46-2.28,11.92,11.92,0,0,1,6.17-1.64c6.24,0,8.56,3.06,8.56,9.83v6.54c0,2.73-1.91,3.21-2.85,3.21a2.68,2.68,0,0,1-2.76-2.35h-.11c-.94,1.53-3.07,2.43-5.27,2.43-3,0-6.77-1.46-6.77-5.83,0-5.38,6.54-6.28,12-6.28v-.3c0-1.64-1.27-2.69-3.17-2.69a8.77,8.77,0,0,0-3.63,1.19A3.12,3.12,0,0,1,61.17,91.67Zm8.41,5h-.79c-2.69,0-5.71.34-5.71,2.54,0,1.42,1.42,1.91,2.65,1.91a3.53,3.53,0,0,0,3.85-3.81Z" style="fill:#fff"/><path d="M78.48,101.61a2.33,2.33,0,0,1,2.35-2.39,3.22,3.22,0,0,1,1.87.67,5.28,5.28,0,0,0,3.07,1c1,0,2.2-.41,2.2-1.61s-1.16-1.49-3.7-2.09-5.42-1.95-5.42-5.46c0-4.45,4.19-6.24,7.74-6.24a11.58,11.58,0,0,1,5,1.08,2.54,2.54,0,0,1,1.57,2.25,2.21,2.21,0,0,1-2.31,2.31,3.16,3.16,0,0,1-1.57-.52A4.69,4.69,0,0,0,86.81,90c-1.16,0-2.32.41-2.32,1.49s1,1.31,3.41,1.84c2.84.63,5.94,2.09,5.94,5.71,0,4.71-4.15,6.36-8,6.36a11.84,11.84,0,0,1-6-1.46A2.67,2.67,0,0,1,78.48,101.61Z" style="fill:#fff"/><path d="M112.27,98.77a2.24,2.24,0,0,1,2.35,2.32,2.64,2.64,0,0,1-1.08,2.09,10.53,10.53,0,0,1-6.84,2.17c-5.61,0-10.24-3.55-10.24-9.83,0-6.09,4.41-10,10.05-10a8.8,8.8,0,0,1,9,7.21,6.9,6.9,0,0,1,.18,1.42c0,2.1-1.23,3-3.17,3H102.33c.18,2.05,2.24,3.51,4.44,3.51a5.55,5.55,0,0,0,3.55-1.08A3.14,3.14,0,0,1,112.27,98.77Zm-2.06-5.46a3.38,3.38,0,0,0-3.66-3.55,4,4,0,0,0-4.22,3.55Zm-3.59-9.94A3.2,3.2,0,1,1,110,80.19,3.25,3.25,0,0,1,106.62,83.37Z" style="fill:#fff"/></svg>