<svg id="Layer_1" data-name="Layer 1" xmlns="http://www.w3.org/2000/svg" viewBox="0 0 134.77 134.77"><rect width="134.77" height="134.77" rx="16.29" style="fill:#29abe2"/><path d="M61.34,46.45c0-.28,0-.48,0-.68,0-.51,0-1,0-1.55,0-8.07,0-7.33,0-15.4a7.24,7.24,0,0,1,.13-1.61,5.35,5.35,0,0,1,2.3-3.38,6.34,6.34,0,0,1,7.07,0,5.52,5.52,0,0,1,2.52,4.62V45.5c0,.28,0,.57,0,.89.17,0,.29.06.42.07h39.43a9.26,9.26,0,0,1,2.35.26,7.18,7.18,0,0,1,3.54,2.14,6.14,6.14,0,0,1,1.67,3.89c0,.23,0,.45,0,.68v3.72a8.26,8.26,0,0,1-.28,2.27,6.7,6.7,0,0,1-4.07,4.42l-.31.12-.3.1a1.23,1.23,0,0,0-.28.63c-1.11,3.83-2.24,7.65-3.32,11.49q-3.59,12.78-7.15,25.57c-.21.79-.42,1.57-.62,2.35a9.22,9.22,0,0,1-2.37,4.2,12.16,12.16,0,0,1-6.31,3.45,12.65,12.65,0,0,1-2.75.29H41.23a11.88,11.88,0,0,1-5.66-1.36,10.33,10.33,0,0,1-5.19-6.05c-1.06-3.16-2-6.37-2.89-9.57q-4.11-14.3-7.92-28.66c-.16-.63-.33-1.26-.49-1.9a.7.7,0,0,0-.51-.55,6.68,6.68,0,0,1-2.82-1.79,6.34,6.34,0,0,1-1.81-4.26c0-1.74-.06-3.48,0-5.21a6.51,6.51,0,0,1,5.53-6.11,12.75,12.75,0,0,1,1.75-.11H61.34ZM96.08,83.32v-2.1q0-5.88,0-11.76A4.25,4.25,0,0,0,96,68.33a4.64,4.64,0,0,0-3.15-3.26A3,3,0,0,0,91.2,65a4.68,4.68,0,0,0-3.62,3.91c0,.29,0,.58,0,.88v27a4.86,4.86,0,0,0,0,.54,8.67,8.67,0,0,0,.15,1.14,4.26,4.26,0,0,0,8.26-.1A6.15,6.15,0,0,0,96.08,97Zm-16.45.08V69.8c0-.33,0-.67,0-1a4.12,4.12,0,0,0-2.2-3.36,3.69,3.69,0,0,0-3-.34,3.81,3.81,0,0,0-1.91,1.44,4.75,4.75,0,0,0-.91,2.91q0,13.83,0,27.67a6.83,6.83,0,0,0,.12,1.27,3.74,3.74,0,0,0,3.44,3.2,4.28,4.28,0,0,0,1.07-.06,3.77,3.77,0,0,0,3.25-2.85,6.54,6.54,0,0,0,.17-1.81Zm-32.85-.08V69.86c0-.25,0-.5,0-.75a4.48,4.48,0,0,0-1.63-3.36,3.22,3.22,0,0,0-1.9-.81,4.08,4.08,0,0,0-4,2.23,4.21,4.21,0,0,0-.52,2.14V96.78a10.52,10.52,0,0,0,.1,1.48,3.63,3.63,0,0,0,1.46,2.5,4.18,4.18,0,0,0,3.79.65,3.6,3.6,0,0,0,2.48-2.55,6.08,6.08,0,0,0,.24-1.94Zm8.37,0h0V96.75c0,.36,0,.72,0,1.08a4.07,4.07,0,0,0,.59,1.92,3.6,3.6,0,0,0,2.64,1.8,4.82,4.82,0,0,0,1.42,0,3.86,3.86,0,0,0,3.24-3,7.32,7.32,0,0,0,.13-1.55V69.55c0-.2,0-.41,0-.61a4.29,4.29,0,0,0-2.83-3.78,3.6,3.6,0,0,0-4.05,1,4.71,4.71,0,0,0-1,1.82,4.77,4.77,0,0,0-.15,1.41Z" style="fill:#fff"/></svg>