<svg xmlns="http://www.w3.org/2000/svg" viewBox="0 0 134.77 134.77"><g id="Layer_2" data-name="Layer 2"><rect width="134.77" height="134.77" rx="16.29" style="fill:#f15a24"/><path d="M67.27,114.31a46.93,46.93,0,1,1,47-46.77A47,47,0,0,1,67.27,114.31ZM42,64.38c1.13-7.15,2.25-14.17,3.4-21.4l-7.13-4.57a40.75,40.75,0,0,0-11.84,26Zm66.29,0a41.11,41.11,0,0,0-11.87-26L89.33,43c1.16,7.29,2.28,14.31,3.41,21.39ZM26.44,70.46a41,41,0,0,0,11.88,25.9l7.13-4.58C44.3,84.58,43.17,77.56,42,70.46Zm70,25.91a40.93,40.93,0,0,0,11.82-25.86H92.73c-1.15,7.17-2.27,14.14-3.41,21.26ZM50.89,45.72C50,51.79,49,58,48,64.34H64.31V48.54ZM70.5,48.54V64.35H86.33a66.68,66.68,0,0,0-2.89-18.54ZM86.75,70.49H70.5V86.23l13.4,2.83ZM50.87,89.05l13.4-2.81V70.49H48C49,76.84,49.94,83,50.87,89.05ZM81.54,40.21c-2.65-5.67-5.38-10.55-11.07-13.33V42.56ZM70.46,107.88c5.75-2.84,8.46-7.71,11.06-13.29l-11.06-2.4Zm-6.14-65.3V26.85c-5.72,2.86-8.49,7.71-11,13.32Zm0,49.59L53.25,94.63c2.65,5.62,5.37,10.47,11.06,13.27Zm27.76-57.9L82.68,29.1l-.23.38,4.5,8Zm-5.13,63-4.48,8,.23.38,9.37-5.18ZM52.32,29.48l-.2-.39-9.44,5.19,5.16,3.21Zm-.24,76.19.18-.48c-1.44-2.59-2.89-5.17-4.44-7.94l-5.1,3.26Z" style="fill:#fff"/></g></svg>