<svg version="1.1" id="Layer_1" xmlns="http://www.w3.org/2000/svg" x="0px" y="0px" width="864.567px" height="396.851px" viewBox="0 0 864.567 396.851"><path fill="#4195D1" d="M127.56,172.407v-42.415l0,0V99.213h42.611v14.033h13.917V99.213h19.948V85.039h2.994v14.174h19.947v14.033
 h13.918l-0.001-14.033h42.612v24.91c0,0.365-0.25,0.685-0.605,0.772l-12.771,3.15c-0.334,0.083-0.657-0.171-0.657-0.515v-14.285
 h-14.546v14.033h-42.122v-14.033h-14.545v14.033h-42.123v-14.033h-14.545v17.012l0,0v31.822c0,0.311-0.161,0.596-0.425,0.758
 c-2.713,1.679-5.298,3.569-7.708,5.677l-0.159,0.133l-0.178,0.159c-1.476,1.31-2.868,2.694-4.187,4.138
 C128.447,173.478,127.56,173.131,127.56,172.407z M207.03,150.293V133.65h-2.994v16.643H207.03z M297.638,205.941h-14.131v77.664
 v14.032H207.03v14.174h-2.994v-14.174H127.56v-14.032v-71.206c0-2.195,0.174-4.349,0.483-6.458h-14.657v-2.994h15.191
 c2.033-9.312,7.001-17.522,13.879-23.633c0.006-0.005,0.013-0.004,0.018-0.009c5.379-4.775,11.923-8.26,19.149-9.972l-0.01-0.039
 l64.695-15.961l28.935-7.139l13.223-3.263l14.055-3.467c0.502-0.124,0.986,0.256,0.986,0.772v62.709h14.131V205.941z
 M196.895,175.951c10.09,6.961,17.167,17.991,18.822,30.705c0.059,0.456,0.618,0.632,0.92,0.286l39.631-45.554
 c0.34-0.391-0.024-0.987-0.527-0.863l-58.679,14.477C196.616,175.112,196.517,175.69,196.895,175.951z M269.475,205.941h-22.208
 v-2.994h22.208v-33.94c0-0.491-0.609-0.719-0.931-0.349l-62,71.264c-0.48,0.553-1.317,0.61-1.87,0.13l-4.293-3.735l-4.383-3.674
 c-0.553-0.464-0.621-1.273-0.183-1.846c4.033-5.256,6.24-11.738,6.24-18.396c0-16.496-13.279-29.947-29.709-30.228
 c-13.406-0.229-24.853,8.661-29.035,20.774h46.636v2.994h-47.504c-0.537,2.278-0.851,4.637-0.851,7.061v70.604h62.443v-32.765h2.994
 v32.765h62.444V205.941z"></path></svg>